<svg width="455" height="1442" viewBox="0 0 455 1442" fill="none" xmlns="http://www.w3.org/2000/svg">
<path d="M57.2809 1040.75L185.824 1028.91C199.153 1027.67 211.756 1033.62 218.756 1044.65L286.062 1150.06C293.062 1161.09 293.415 1175.06 287.086 1187.34L225.849 1304.58C219.52 1316.86 207.27 1324.88 193.941 1326.12L65.3975 1337.96C52.0682 1339.21 39.4655 1333.26 32.4652 1322.23L-34.8403 1216.82C-41.8407 1205.78 -42.1937 1191.82 -35.8648 1179.54L25.373 1062.29C31.8112 1050.4 43.9516 1042 57.2809 1040.75ZM-20.8521 1180.45C-26.4812 1191.43 -26.0668 1204.12 -20.0329 1214.01L40.3816 1308.77C46.8048 1318.53 57.772 1323.99 69.8243 1322.77L185.677 1312.16C197.729 1310.94 208.671 1303.58 214.3 1292.6L269.349 1187.37C274.978 1176.38 274.564 1163.7 268.53 1153.8L208.115 1059.05C201.692 1049.29 190.725 1043.83 178.673 1045.05L63.0695 1055.78C51.0172 1057 40.0751 1064.36 34.446 1075.35L-20.8521 1180.45Z" fill="#FEF6F3"/>
<path d="M-88.9503 13.4533C-97.195 12.3056 -105.812 13.6029 -113.275 17.4483L-214.422 70.9725C-228.569 78.3938 -238.798 97.3028 -236.733 112.8L-222.168 221.666C-220.103 237.163 -205.587 251.3 -190.235 253.358L-80.5763 267.21C-64.8351 269.133 -46.0922 259.068 -38.3852 244.822L15.2049 144.589C22.9119 130.342 20.3145 109.976 9.3376 99.246L-67.3297 23.2373C-72.6934 17.9347 -80.7055 14.601 -88.9503 13.4533ZM-86.5567 0.834675C-75.2573 2.18875 -65.1407 6.89963 -58.202 13.9734L18.4654 89.9821C33.3404 104.627 36.6579 131.271 26.2885 150.439L-27.3017 250.672C-37.4217 269.964 -62.1787 282.952 -83.0007 280.471L-192.66 266.618C-213.731 264.013 -232.255 245.578 -234.821 224.57L-249.137 115.829C-251.953 94.6957 -238.781 70.3471 -219.648 60.1481L-118.502 6.62388C-109.31 1.33801 -97.8561 -0.519404 -86.5567 0.834675Z" fill="#FEF6F3"/>
<path d="M246.03 122.713L264.087 131.016L205.347 248.61L187.29 240.306L246.03 122.713Z" fill="#FEF6F3"/>
<path d="M249.29 134.427C240.741 130.191 237.713 119.555 242.528 110.672C247.343 101.789 258.177 98.0219 266.726 102.258C275.276 106.495 278.303 117.131 273.488 126.014C268.674 134.897 257.84 138.664 249.29 134.427Z" fill="#FEF6F3"/>
<path d="M-1.16842 1448.44L-19.0428 1439.73L42.3223 1323.45L60.1967 1332.17L-1.16842 1448.44Z" fill="#FEF6F3"/>
<path d="M417.257 1176.53L414.099 1201.82L284.764 1190.07L287.921 1164.78L417.257 1176.53Z" fill="#FEF6F3"/>
<path d="M416.457 1208.31C407.921 1204.1 404.928 1193.48 409.771 1184.58C414.615 1175.68 425.461 1171.88 433.997 1176.09C442.533 1180.3 445.526 1190.93 440.682 1199.83C435.838 1208.72 424.992 1212.52 416.457 1208.31Z" fill="#FEF6F3"/>
<path d="M292.397 1417.29L272.391 1430.63L201.658 1323.67L221.664 1310.33L292.397 1417.29Z" fill="#FEF6F3"/>
<path d="M279.576 1448.7C271.041 1444.49 268.047 1433.86 272.89 1424.96C277.733 1416.06 288.579 1412.26 297.115 1416.47C305.65 1420.68 308.644 1431.31 303.801 1440.21C298.958 1449.11 288.112 1452.91 279.576 1448.7Z" fill="#FEF6F3"/>
</svg>
