<svg width="273" height="22" viewBox="0 0 273 22" fill="none" xmlns="http://www.w3.org/2000/svg">
<g clip-path="url(#clip0)">
<path fill-rule="evenodd" clip-rule="evenodd" d="M0.0393066 2.26563C0.0393066 1.4372 0.71088 0.765625 1.53931 0.765625H30.5393C31.3677 0.765625 32.0393 1.4372 32.0393 2.26563V20.2656C32.0393 21.0941 31.3677 21.7656 30.5393 21.7656H1.53931C0.71088 21.7656 0.0393066 21.0941 0.0393066 20.2656V2.26563Z" fill="#F4F6F7"/>
<path fill-rule="evenodd" clip-rule="evenodd" d="M0.0393066 2.26562C0.0393066 1.4372 0.71088 0.765625 1.53931 0.765625H30.5393C31.3677 0.765625 32.0393 1.4372 32.0393 2.26562V5.76562H0.0393066V2.26562Z" fill="#4095DB"/>
<path fill-rule="evenodd" clip-rule="evenodd" d="M0.0393066 16.7656H32.0393V20.2656C32.0393 21.0941 31.3677 21.7656 30.5393 21.7656H1.53931C0.71088 21.7656 0.0393066 21.0941 0.0393066 20.2656V16.7656Z" fill="#F4B662"/>
<path fill-rule="evenodd" clip-rule="evenodd" d="M20.1798 8.05024C19.8684 7.91414 19.3787 7.76562 18.7687 7.76562C17.2118 7.76562 16.1159 8.68598 16.1068 10.0037C16.0969 10.9784 16.8888 11.5221 17.4859 11.846C18.0995 12.1781 18.3057 12.3906 18.3032 12.6876C18.299 13.1417 17.8135 13.3498 17.3607 13.3498C16.7302 13.3498 16.3953 13.2474 15.8774 12.9942L15.6748 12.8863L15.4546 14.4042C15.8218 14.5931 16.5025 14.757 17.209 14.7656C18.8636 14.7656 19.9388 13.8565 19.9514 12.4493C19.957 11.6764 19.5374 11.0904 18.6286 10.6067C18.0783 10.2923 17.7406 10.084 17.7445 9.76577C17.7448 9.48385 18.0298 9.18221 18.6466 9.18221C19.1617 9.173 19.5345 9.30489 19.8251 9.44269L19.9665 9.52031L20.1798 8.05024ZM12.8929 14.6651L13.8781 7.8838H15.4528L14.4677 14.6651H12.8929ZM22.9039 10.3655C22.9039 10.3655 22.4071 11.8711 22.2766 12.2608H23.5839C23.5217 11.9218 23.2195 10.3033 23.2195 10.3033L23.1133 9.7184C23.0712 9.8528 23.0125 10.031 22.9679 10.1664C22.9282 10.2871 22.8996 10.3739 22.9039 10.3655ZM24.2194 7.89071H23.0024C22.6249 7.89071 22.3424 8.01069 22.177 8.45284L19.8384 14.6675H21.4924C21.4924 14.6675 21.7622 13.8315 21.8235 13.648C21.9083 13.648 22.3082 13.6488 22.7322 13.6496C23.2103 13.6505 23.7189 13.6515 23.8404 13.6515C23.8876 13.8881 24.0322 14.6675 24.0322 14.6675H25.4938L24.2194 7.89071ZM11.5718 7.88951L10.0305 12.5127L9.86543 11.5729L9.31359 8.45704C9.21839 8.02731 8.94171 7.89992 8.59972 7.8849H6.06029L6.03931 8.02541C6.65712 8.20103 7.20957 8.45428 7.69372 8.76926L9.0941 14.6592L10.7607 14.6581L13.2406 7.88951H11.5718Z" fill="#0071CE"/>
<path fill-rule="evenodd" clip-rule="evenodd" d="M0.0393066 2.26563C0.0393066 1.4372 0.71088 0.765625 1.53931 0.765625H30.5393C31.3677 0.765625 32.0393 1.4372 32.0393 2.26563V20.2656C32.0393 21.0941 31.3677 21.7656 30.5393 21.7656H1.53931C0.71088 21.7656 0.0393066 21.0941 0.0393066 20.2656V2.26563Z" fill="#E5E5E5" fill-opacity="0.01"/>
</g>
<g clip-path="url(#clip1)">
<path fill-rule="evenodd" clip-rule="evenodd" d="M96.0393 2.26563C96.0393 1.4372 96.7109 0.765625 97.5393 0.765625H126.539C127.368 0.765625 128.039 1.4372 128.039 2.26563V20.2656C128.039 21.0941 127.368 21.7656 126.539 21.7656H97.5393C96.7109 21.7656 96.0393 21.0941 96.0393 20.2656V2.26563Z" fill="#F4F6F7"/>
<path fill-rule="evenodd" clip-rule="evenodd" d="M108.539 16.7656C111.577 16.7656 114.039 14.3032 114.039 11.2656C114.039 8.22806 111.577 5.76562 108.539 5.76562C105.502 5.76562 103.039 8.22806 103.039 11.2656C103.039 14.3032 105.502 16.7656 108.539 16.7656Z" fill="#D8232A"/>
<path fill-rule="evenodd" clip-rule="evenodd" d="M112.039 15.5085C112.99 16.2938 114.21 16.7656 115.539 16.7656C118.577 16.7656 121.039 14.3032 121.039 11.2656C121.039 8.22806 118.577 5.76562 115.539 5.76562C114.21 5.76562 112.99 6.23744 112.039 7.02279C113.261 8.03158 114.039 9.55769 114.039 11.2656C114.039 12.9736 113.261 14.4997 112.039 15.5085Z" fill="#ED9F2D"/>
<path fill-rule="evenodd" clip-rule="evenodd" d="M112.039 7.02271C110.818 8.0315 110.039 9.55761 110.039 11.2655C110.039 12.9735 110.818 14.4996 112.039 15.5084C113.261 14.4996 114.039 12.9735 114.039 11.2655C114.039 9.55761 113.261 8.0315 112.039 7.02271Z" fill="#D8232A"/>
<mask id="mask0" mask-type="alpha" maskUnits="userSpaceOnUse" x="110" y="7" width="5" height="9">
<path fill-rule="evenodd" clip-rule="evenodd" d="M112.039 7.02271C110.818 8.0315 110.039 9.55761 110.039 11.2655C110.039 12.9735 110.818 14.4996 112.039 15.5084C113.261 14.4996 114.039 12.9735 114.039 11.2655C114.039 9.55761 113.261 8.0315 112.039 7.02271Z" fill="white"/>
</mask>
<g mask="url(#mask0)">
<path fill-rule="evenodd" clip-rule="evenodd" d="M109.039 7.76562H115.039V8.76562H109.039V7.76562ZM109.039 9.76562H115.039V10.7656H109.039V9.76562ZM115.039 11.7656H109.039V12.7656H115.039V11.7656ZM109.039 13.7656H115.039V14.7656H109.039V13.7656ZM115.039 15.7656H109.039V16.7656H115.039V15.7656Z" fill="#ED9F2D"/>
</g>
<path fill-rule="evenodd" clip-rule="evenodd" d="M96.0393 2.26563C96.0393 1.4372 96.7109 0.765625 97.5393 0.765625H126.539C127.368 0.765625 128.039 1.4372 128.039 2.26563V20.2656C128.039 21.0941 127.368 21.7656 126.539 21.7656H97.5393C96.7109 21.7656 96.0393 21.0941 96.0393 20.2656V2.26563Z" fill="#E5E5E5" fill-opacity="0.01"/>
</g>
<g clip-path="url(#clip2)">
<path fill-rule="evenodd" clip-rule="evenodd" d="M48.0393 2.26563C48.0393 1.4372 48.7109 0.765625 49.5393 0.765625H78.5393C79.3677 0.765625 80.0393 1.4372 80.0393 2.26563V20.2656C80.0393 21.0941 79.3677 21.7656 78.5393 21.7656H49.5393C48.7109 21.7656 48.0393 21.0941 48.0393 20.2656V2.26563Z" fill="url(#paint0_radial)"/>
<path fill-rule="evenodd" clip-rule="evenodd" d="M48.0393 2.26563C48.0393 1.4372 48.7109 0.765625 49.5393 0.765625H78.5393C79.3677 0.765625 80.0393 1.4372 80.0393 2.26563V20.2656C80.0393 21.0941 79.3677 21.7656 78.5393 21.7656H49.5393C48.7109 21.7656 48.0393 21.0941 48.0393 20.2656V2.26563Z" fill="#E5E5E5" fill-opacity="0.01"/>
<mask id="path-15-outside-1" maskUnits="userSpaceOnUse" x="51.6072" y="7.76562" width="25" height="7" fill="black">
<rect fill="white" x="51.6072" y="7.76562" width="25" height="7"/>
<path fill-rule="evenodd" clip-rule="evenodd" d="M55.4357 11.8329L56.1025 9.99812H56.1169L56.7622 11.8329H55.4357ZM55.5432 8.76562L53.6072 13.7656H54.7402L55.1417 12.6522H57.0562L57.4434 13.7656H58.6121L56.6977 8.76562H55.5432ZM59.0567 8.76562V13.7656H60.1107V10.2572H60.1251L61.3799 13.7656H62.2475L63.5023 10.2222H63.5166V13.7656H64.5707V8.76562H62.986L61.8531 12.204H61.8388L60.6413 8.76562H59.0567ZM65.5602 8.76562V13.7656H69.4465V12.8413H66.6859V11.6158H69.1669V10.7614H66.6859V9.68999H69.3891V8.76562H65.5602ZM71.4614 11.1466L69.676 13.7656H70.9379L72.078 12.0359L73.1966 13.7656H74.5374L72.752 11.1536L74.394 8.76562H73.1607L72.121 10.3623L71.1172 8.76562H69.8122L71.4614 11.1466Z"/>
</mask>
<path fill-rule="evenodd" clip-rule="evenodd" d="M55.4357 11.8329L56.1025 9.99812H56.1169L56.7622 11.8329H55.4357ZM55.5432 8.76562L53.6072 13.7656H54.7402L55.1417 12.6522H57.0562L57.4434 13.7656H58.6121L56.6977 8.76562H55.5432ZM59.0567 8.76562V13.7656H60.1107V10.2572H60.1251L61.3799 13.7656H62.2475L63.5023 10.2222H63.5166V13.7656H64.5707V8.76562H62.986L61.8531 12.204H61.8388L60.6413 8.76562H59.0567ZM65.5602 8.76562V13.7656H69.4465V12.8413H66.6859V11.6158H69.1669V10.7614H66.6859V9.68999H69.3891V8.76562H65.5602ZM71.4614 11.1466L69.676 13.7656H70.9379L72.078 12.0359L73.1966 13.7656H74.5374L72.752 11.1536L74.394 8.76562H73.1607L72.121 10.3623L71.1172 8.76562H69.8122L71.4614 11.1466Z" fill="#1793C0" fill-opacity="0.01"/>
<path d="M55.4357 11.8329L54.4958 11.4913L54.0082 12.8329H55.4357V11.8329ZM56.1025 9.99812V8.99812H55.402L55.1627 9.65653L56.1025 9.99812ZM56.1169 9.99812L57.0602 9.66631L56.8252 8.99812H56.1169V9.99812ZM56.7622 11.8329V12.8329H58.174L57.7055 11.501L56.7622 11.8329ZM55.5432 8.76562V7.76562H54.8581L54.6107 8.40455L55.5432 8.76562ZM53.6072 13.7656L52.6747 13.4045L52.1477 14.7656H53.6072V13.7656ZM54.7402 13.7656V14.7656H55.4426L55.6809 14.1049L54.7402 13.7656ZM55.1417 12.6522V11.6522H54.4393L54.201 12.3129L55.1417 12.6522ZM57.0562 12.6522L58.0007 12.3237L57.7672 11.6522H57.0562V12.6522ZM57.4434 13.7656L56.4988 14.0941L56.7324 14.7656H57.4434V13.7656ZM58.6121 13.7656V14.7656H60.0658L59.546 13.408L58.6121 13.7656ZM56.6977 8.76562L57.6315 8.40805L57.3856 7.76562H56.6977V8.76562ZM59.0567 8.76562V7.76562H58.0567V8.76562H59.0567ZM59.0567 13.7656H58.0567V14.7656H59.0567V13.7656ZM60.1107 13.7656V14.7656H61.1107V13.7656H60.1107ZM60.1107 10.2572V9.25722H59.1107V10.2572H60.1107ZM60.1251 10.2572L61.0667 9.92046L60.8294 9.25722H60.1251V10.2572ZM61.3799 13.7656L60.4383 14.1024L60.6755 14.7656H61.3799V13.7656ZM62.2475 13.7656V14.7656H62.9542L63.1901 14.0994L62.2475 13.7656ZM63.5023 10.2222V9.22221H62.7956L62.5597 9.8884L63.5023 10.2222ZM63.5166 10.2222H64.5166V9.22221H63.5166V10.2222ZM63.5166 13.7656H62.5166V14.7656H63.5166V13.7656ZM64.5707 13.7656V14.7656H65.5707V13.7656H64.5707ZM64.5707 8.76562H65.5707V7.76562H64.5707V8.76562ZM62.986 8.76562V7.76562H62.2626L62.0363 8.45268L62.986 8.76562ZM61.8531 12.204V13.204H62.5765L62.8029 12.5169L61.8531 12.204ZM61.8388 12.204L60.8944 12.5329L61.1281 13.204H61.8388V12.204ZM60.6413 8.76562L61.5857 8.43674L61.352 7.76562H60.6413V8.76562ZM65.5602 8.76562V7.76562H64.5602V8.76562H65.5602ZM65.5602 13.7656H64.5602V14.7656H65.5602V13.7656ZM69.4465 13.7656V14.7656H70.4465V13.7656H69.4465ZM69.4465 12.8413H70.4465V11.8413H69.4465V12.8413ZM66.6859 12.8413H65.6859V13.8413H66.6859V12.8413ZM66.6859 11.6158V10.6158H65.6859V11.6158H66.6859ZM69.1669 11.6158V12.6158H70.1669V11.6158H69.1669ZM69.1669 10.7614H70.1669V9.76142H69.1669V10.7614ZM66.6859 10.7614H65.6859V11.7614H66.6859V10.7614ZM66.6859 9.68999V8.68999H65.6859V9.68999H66.6859ZM69.3891 9.68999V10.69H70.3891V9.68999H69.3891ZM69.3891 8.76562H70.3891V7.76562H69.3891V8.76562ZM71.4614 11.1466L72.2876 11.7098L72.6747 11.1421L72.2834 10.5772L71.4614 11.1466ZM69.676 13.7656L68.8497 13.2024L67.784 14.7656H69.676V13.7656ZM70.9379 13.7656V14.7656H71.4765L71.7729 14.316L70.9379 13.7656ZM72.078 12.0359L72.9177 11.4929L72.086 10.2068L71.2431 11.4856L72.078 12.0359ZM73.1966 13.7656L72.3569 14.3087L72.6524 14.7656H73.1966V13.7656ZM74.5374 13.7656V14.7656H76.4323L75.363 13.2013L74.5374 13.7656ZM72.752 11.1536L71.928 10.587L71.5396 11.1519L71.9265 11.7179L72.752 11.1536ZM74.394 8.76562L75.218 9.33222L76.2953 7.76562H74.394V8.76562ZM73.1607 8.76562V7.76562H72.6186L72.3227 8.21994L73.1607 8.76562ZM72.121 10.3623L71.2745 10.8945L72.1063 12.2175L72.959 10.9079L72.121 10.3623ZM71.1172 8.76562L71.9638 8.23336L71.6697 7.76562H71.1172V8.76562ZM69.8122 8.76562V7.76562H67.9031L68.9901 9.33503L69.8122 8.76562ZM56.3755 12.1744L57.0424 10.3397L55.1627 9.65653L54.4958 11.4913L56.3755 12.1744ZM56.1025 10.9981H56.1169V8.99812H56.1025V10.9981ZM55.1735 10.3299L55.8188 12.1647L57.7055 11.501L57.0602 9.66631L55.1735 10.3299ZM56.7622 10.8329H55.4357V12.8329H56.7622V10.8329ZM54.6107 8.40455L52.6747 13.4045L54.5398 14.1267L56.4758 9.1267L54.6107 8.40455ZM53.6072 14.7656H54.7402V12.7656H53.6072V14.7656ZM55.6809 14.1049L56.0824 12.9914L54.201 12.3129L53.7995 13.4264L55.6809 14.1049ZM55.1417 13.6522H57.0562V11.6522H55.1417V13.6522ZM56.1116 12.9806L56.4988 14.0941L58.3879 13.4372L58.0007 12.3237L56.1116 12.9806ZM57.4434 14.7656H58.6121V12.7656H57.4434V14.7656ZM59.546 13.408L57.6315 8.40805L55.7638 9.1232L57.6782 14.1232L59.546 13.408ZM56.6977 7.76562H55.5432V9.76562H56.6977V7.76562ZM58.0567 8.76562V13.7656H60.0567V8.76562H58.0567ZM59.0567 14.7656H60.1107V12.7656H59.0567V14.7656ZM61.1107 13.7656V10.2572H59.1107V13.7656H61.1107ZM60.1107 11.2572H60.1251V9.25722H60.1107V11.2572ZM59.1835 10.594L60.4383 14.1024L62.3215 13.4289L61.0667 9.92046L59.1835 10.594ZM61.3799 14.7656H62.2475V12.7656H61.3799V14.7656ZM63.1901 14.0994L64.4449 10.556L62.5597 9.8884L61.3049 13.4318L63.1901 14.0994ZM63.5023 11.2222H63.5166V9.22221H63.5023V11.2222ZM62.5166 10.2222V13.7656H64.5166V10.2222H62.5166ZM63.5166 14.7656H64.5707V12.7656H63.5166V14.7656ZM65.5707 13.7656V8.76562H63.5707V13.7656H65.5707ZM64.5707 7.76562H62.986V9.76562H64.5707V7.76562ZM62.0363 8.45268L60.9033 11.8911L62.8029 12.5169L63.9358 9.07857L62.0363 8.45268ZM61.8531 11.204H61.8388V13.204H61.8531V11.204ZM62.7832 11.8751L61.5857 8.43674L59.697 9.09451L60.8944 12.5329L62.7832 11.8751ZM60.6413 7.76562H59.0567V9.76562H60.6413V7.76562ZM64.5602 8.76562V13.7656H66.5602V8.76562H64.5602ZM65.5602 14.7656H69.4465V12.7656H65.5602V14.7656ZM70.4465 13.7656V12.8413H68.4465V13.7656H70.4465ZM69.4465 11.8413H66.6859V13.8413H69.4465V11.8413ZM67.6859 12.8413V11.6158H65.6859V12.8413H67.6859ZM66.6859 12.6158H69.1669V10.6158H66.6859V12.6158ZM70.1669 11.6158V10.7614H68.1669V11.6158H70.1669ZM69.1669 9.76142H66.6859V11.7614H69.1669V9.76142ZM67.6859 10.7614V9.68999H65.6859V10.7614H67.6859ZM66.6859 10.69H69.3891V8.68999H66.6859V10.69ZM70.3891 9.68999V8.76562H68.3891V9.68999H70.3891ZM69.3891 7.76562H65.5602V9.76562H69.3891V7.76562ZM70.6351 10.5833L68.8497 13.2024L70.5022 14.3289L72.2876 11.7098L70.6351 10.5833ZM69.676 14.7656H70.9379V12.7656H69.676V14.7656ZM71.7729 14.316L72.913 12.5863L71.2431 11.4856L70.103 13.2153L71.7729 14.316ZM71.2383 12.579L72.3569 14.3087L74.0363 13.2226L72.9177 11.4929L71.2383 12.579ZM73.1966 14.7656H74.5374V12.7656H73.1966V14.7656ZM75.363 13.2013L73.5776 10.5893L71.9265 11.7179L73.7119 14.3299L75.363 13.2013ZM73.576 11.7202L75.218 9.33222L73.57 8.19903L71.928 10.587L73.576 11.7202ZM74.394 7.76562H73.1607V9.76562H74.394V7.76562ZM72.3227 8.21994L71.283 9.81658L72.959 10.9079L73.9987 9.31131L72.3227 8.21994ZM72.9676 9.83L71.9638 8.23336L70.2706 9.29789L71.2745 10.8945L72.9676 9.83ZM71.1172 7.76562H69.8122V9.76562H71.1172V7.76562ZM68.9901 9.33503L70.6393 11.716L72.2834 10.5772L70.6343 8.19622L68.9901 9.33503Z" fill="white" mask="url(#path-15-outside-1)"/>
</g>
<g clip-path="url(#clip3)">
<path d="M144.539 2.26563C144.539 1.71334 144.987 1.26562 145.539 1.26562H174.539C175.092 1.26562 175.539 1.71334 175.539 2.26563V20.2656C175.539 20.8179 175.092 21.2656 174.539 21.2656H145.539C144.987 21.2656 144.539 20.8179 144.539 20.2656V2.26563Z" fill="#F4F6F7" stroke="#8A5137"/>
<path fill-rule="evenodd" clip-rule="evenodd" d="M144.039 2.26563C144.039 1.4372 144.711 0.765625 145.539 0.765625H174.539C175.368 0.765625 176.039 1.4372 176.039 2.26563V20.2656C176.039 21.0941 175.368 21.7656 174.539 21.7656H145.539C144.711 21.7656 144.039 21.0941 144.039 20.2656V2.26563Z" fill="#E5E5E5" fill-opacity="0.01"/>
<path fill-rule="evenodd" clip-rule="evenodd" d="M164.785 6.76562C164.684 6.76588 164.583 6.76897 164.483 6.77912C164.093 6.81876 163.726 6.99283 163.462 7.26141C163.267 7.46065 163.131 7.7074 163.073 7.97124C163.045 8.10149 163.041 8.23208 163.041 8.36407V9.24015V9.66482V9.78962C163.041 9.82303 163.033 9.82566 163.072 9.82566H163.697H164.319H164.944C165.149 9.82566 165.355 9.81855 165.558 9.83564C165.759 9.85252 165.963 9.90536 166.125 10.0194C166.354 10.1798 166.446 10.4565 166.368 10.711C166.294 10.9554 166.069 11.1192 165.813 11.1872C165.784 11.1948 165.755 11.2012 165.726 11.2067C165.71 11.21 165.687 11.2094 165.672 11.2159C165.664 11.2191 165.645 11.2232 165.659 11.2355C165.663 11.2386 165.678 11.2386 165.688 11.2385C165.693 11.2384 165.697 11.2384 165.699 11.2386C165.78 11.2458 165.86 11.2587 165.938 11.2784C166.177 11.3386 166.409 11.4681 166.519 11.6807C166.65 11.9324 166.583 12.244 166.372 12.4392C166.205 12.593 165.972 12.6714 165.742 12.6974C165.627 12.7104 165.51 12.7078 165.394 12.7078H164.768H164.143H163.521H163.208H163.13C163.112 12.7078 163.061 12.6996 163.047 12.7078C163.038 12.7126 163.041 12.7196 163.041 12.7323V13.2669V14.2104V15.1638V15.7281C163.041 15.7337 163.037 15.7585 163.041 15.7631C163.046 15.7684 163.088 15.7637 163.098 15.7637H163.177H163.489H164.111H164.737H165.361C165.733 15.7637 166.086 15.6746 166.387 15.4662C166.796 15.1837 167.037 14.7346 167.039 14.2632C167.039 14.245 167.039 14.2267 167.039 14.2084V14.1818C167.039 14.1414 167.039 14.101 167.039 14.0606V13.5637C167.039 13.3231 167.039 13.0826 167.039 12.8421C167.039 12.5466 167.039 12.2511 167.039 11.9556C167.039 11.6295 167.039 11.3034 167.039 10.9773C167.039 10.6399 167.039 10.3025 167.039 9.96509C167.039 9.6397 167.039 9.31435 167.039 8.98896C167.039 8.6988 167.039 8.40869 167.039 8.11854C167.039 7.88317 167.039 7.6478 167.039 7.41243V6.94224C167.039 6.88483 167.039 6.82743 167.039 6.76998H167.033C166.834 6.77028 166.635 6.76998 166.436 6.76998H165.813H165.187C165.063 6.76998 164.938 6.76592 164.812 6.76562H164.785ZM164.041 10.3762C164.037 10.3891 164.041 10.4178 164.041 10.4318V10.9317V11.1654C164.041 11.1849 164.035 11.252 164.045 11.2619C164.053 11.2703 164.088 11.2619 164.099 11.2619H164.157H164.269H164.492C164.565 11.2619 164.639 11.2638 164.712 11.2619C164.803 11.2595 164.89 11.2204 164.955 11.1247C165.028 11.0163 165.054 10.857 165.032 10.7108C165.022 10.6461 165.002 10.5855 164.973 10.5336C164.918 10.4342 164.836 10.3792 164.749 10.369C164.707 10.3642 164.666 10.3664 164.624 10.3664H164.401H164.174H164.063C164.057 10.3664 164.053 10.3656 164.05 10.3656C164.046 10.3656 164.044 10.3674 164.041 10.3762ZM164.488 11.266H164.041C164.041 11.2743 164.041 11.2825 164.041 11.2908V11.7381V12.0023V12.0988C164.041 12.1125 164.037 12.1416 164.041 12.1542C164.047 12.1734 164.103 12.1626 164.12 12.1626H164.234H164.457H164.682C164.755 12.1626 164.825 12.1561 164.89 12.1008C164.969 12.0335 165.022 11.9161 165.036 11.7852C165.051 11.6356 165.016 11.4808 164.938 11.3793C164.875 11.2971 164.796 11.2669 164.713 11.266C164.688 11.2657 164.663 11.2656 164.638 11.2656C164.588 11.2656 164.538 11.266 164.488 11.266Z" fill="url(#paint1_linear)"/>
<mask id="mask1" mask-type="alpha" maskUnits="userSpaceOnUse" x="163" y="6" width="5" height="10">
<path fill-rule="evenodd" clip-rule="evenodd" d="M164.785 6.76562C164.684 6.76588 164.583 6.76897 164.483 6.77912C164.093 6.81876 163.726 6.99283 163.462 7.26141C163.267 7.46065 163.131 7.7074 163.073 7.97124C163.045 8.10149 163.041 8.23208 163.041 8.36407V9.24015V9.66482V9.78962C163.041 9.82303 163.033 9.82566 163.072 9.82566H163.697H164.319H164.944C165.149 9.82566 165.355 9.81855 165.558 9.83564C165.759 9.85252 165.963 9.90536 166.125 10.0194C166.354 10.1798 166.446 10.4565 166.368 10.711C166.294 10.9554 166.069 11.1192 165.813 11.1872C165.784 11.1948 165.755 11.2012 165.726 11.2067C165.71 11.21 165.687 11.2094 165.672 11.2159C165.664 11.2191 165.645 11.2232 165.659 11.2355C165.663 11.2386 165.678 11.2386 165.688 11.2385C165.693 11.2384 165.697 11.2384 165.699 11.2386C165.78 11.2458 165.86 11.2587 165.938 11.2784C166.177 11.3386 166.409 11.4681 166.519 11.6807C166.65 11.9324 166.583 12.244 166.372 12.4392C166.205 12.593 165.972 12.6714 165.742 12.6974C165.627 12.7104 165.51 12.7078 165.394 12.7078H164.768H164.143H163.521H163.208H163.13C163.112 12.7078 163.061 12.6996 163.047 12.7078C163.038 12.7126 163.041 12.7196 163.041 12.7323V13.2669V14.2104V15.1638V15.7281C163.041 15.7337 163.037 15.7585 163.041 15.7631C163.046 15.7684 163.088 15.7637 163.098 15.7637H163.177H163.489H164.111H164.737H165.361C165.733 15.7637 166.086 15.6746 166.387 15.4662C166.796 15.1837 167.037 14.7346 167.039 14.2632C167.039 14.245 167.039 14.2267 167.039 14.2084V14.1818C167.039 14.1414 167.039 14.101 167.039 14.0606V13.5637C167.039 13.3231 167.039 13.0826 167.039 12.8421C167.039 12.5466 167.039 12.2511 167.039 11.9556C167.039 11.6295 167.039 11.3034 167.039 10.9773C167.039 10.6399 167.039 10.3025 167.039 9.96509C167.039 9.6397 167.039 9.31435 167.039 8.98896C167.039 8.6988 167.039 8.40869 167.039 8.11854C167.039 7.88317 167.039 7.6478 167.039 7.41243V6.94224C167.039 6.88483 167.039 6.82743 167.039 6.76998H167.033C166.834 6.77028 166.635 6.76998 166.436 6.76998H165.813H165.187C165.063 6.76998 164.938 6.76592 164.812 6.76562H164.785ZM164.041 10.3762C164.037 10.3891 164.041 10.4178 164.041 10.4318V10.9317V11.1654C164.041 11.1849 164.035 11.252 164.045 11.2619C164.053 11.2703 164.088 11.2619 164.099 11.2619H164.157H164.269H164.492C164.565 11.2619 164.639 11.2638 164.712 11.2619C164.803 11.2595 164.89 11.2204 164.955 11.1247C165.028 11.0163 165.054 10.857 165.032 10.7108C165.022 10.6461 165.002 10.5855 164.973 10.5336C164.918 10.4342 164.836 10.3792 164.749 10.369C164.707 10.3642 164.666 10.3664 164.624 10.3664H164.401H164.174H164.063C164.057 10.3664 164.053 10.3656 164.05 10.3656C164.046 10.3656 164.044 10.3674 164.041 10.3762ZM164.488 11.266H164.041C164.041 11.2743 164.041 11.2825 164.041 11.2908V11.7381V12.0023V12.0988C164.041 12.1125 164.037 12.1416 164.041 12.1542C164.047 12.1734 164.103 12.1626 164.12 12.1626H164.234H164.457H164.682C164.755 12.1626 164.825 12.1561 164.89 12.1008C164.969 12.0335 165.022 11.9161 165.036 11.7852C165.051 11.6356 165.016 11.4808 164.938 11.3793C164.875 11.2971 164.796 11.2669 164.713 11.266C164.688 11.2657 164.663 11.2656 164.638 11.2656C164.588 11.2656 164.538 11.266 164.488 11.266Z" fill="white"/>
</mask>
<g mask="url(#mask1)">
</g>
<path fill-rule="evenodd" clip-rule="evenodd" d="M154.398 6.78564C154.168 6.82021 153.947 6.90218 153.754 7.023C153.309 7.30145 153.043 7.77291 153.041 8.26904C153.04 8.41491 153.041 8.56078 153.041 8.70669V9.63577V10.716V11.607V11.8759V11.9469C153.041 11.9744 153.041 11.9686 153.074 11.9835C153.112 12 153.15 12.016 153.188 12.0316C153.491 12.1559 153.811 12.2505 154.141 12.2877C154.378 12.3145 154.631 12.322 154.855 12.2344C155.034 12.1643 155.177 12.0349 155.251 11.8671C155.298 11.7593 155.312 11.6454 155.312 11.53V10.2512V9.96335V9.87153C155.312 9.86234 155.306 9.83369 155.312 9.82599C155.319 9.81639 155.374 9.82252 155.39 9.82252H155.511H155.749H156.706V9.84889V11.1113C156.706 11.2595 156.706 11.4077 156.706 11.5559C156.706 11.7285 156.678 11.9018 156.602 12.0605C156.526 12.2187 156.404 12.3523 156.253 12.454C155.887 12.7007 155.402 12.7649 154.96 12.7834C154.644 12.7967 154.326 12.7853 154.012 12.7561C153.686 12.7261 153.357 12.6814 153.041 12.6026V12.7049V13.4069V14.4309V15.3561V15.6504V15.733C153.041 15.7374 153.037 15.7591 153.041 15.7626C153.047 15.7693 153.107 15.7627 153.119 15.7627H153.199H153.363H153.688H154.338H154.988C155.263 15.7627 155.546 15.7802 155.816 15.7172C156.287 15.6071 156.687 15.2989 156.891 14.8909C157.003 14.6669 157.039 14.4288 157.039 14.185V13.7831V13.106V12.2285V11.2298V10.1764V9.14692V8.21966V7.46183V6.95225V6.76575H156.878H156.202H155.527H154.853C154.823 6.76575 154.793 6.76562 154.763 6.76562C154.641 6.76562 154.519 6.76744 154.398 6.78564Z" fill="url(#paint2_linear)"/>
<mask id="mask2" mask-type="alpha" maskUnits="userSpaceOnUse" x="153" y="6" width="5" height="10">
<path fill-rule="evenodd" clip-rule="evenodd" d="M154.398 6.78564C154.168 6.82021 153.947 6.90218 153.754 7.023C153.309 7.30145 153.043 7.77291 153.041 8.26904C153.04 8.41491 153.041 8.56078 153.041 8.70669V9.63577V10.716V11.607V11.8759V11.9469C153.041 11.9744 153.041 11.9686 153.074 11.9835C153.112 12 153.15 12.016 153.188 12.0316C153.491 12.1559 153.811 12.2505 154.141 12.2877C154.378 12.3145 154.631 12.322 154.855 12.2344C155.034 12.1643 155.177 12.0349 155.251 11.8671C155.298 11.7593 155.312 11.6454 155.312 11.53V10.2512V9.96335V9.87153C155.312 9.86234 155.306 9.83369 155.312 9.82599C155.319 9.81639 155.374 9.82252 155.39 9.82252H155.511H155.749H156.706V9.84889V11.1113C156.706 11.2595 156.706 11.4077 156.706 11.5559C156.706 11.7285 156.678 11.9018 156.602 12.0605C156.526 12.2187 156.404 12.3523 156.253 12.454C155.887 12.7007 155.402 12.7649 154.96 12.7834C154.644 12.7967 154.326 12.7853 154.012 12.7561C153.686 12.7261 153.357 12.6814 153.041 12.6026V12.7049V13.4069V14.4309V15.3561V15.6504V15.733C153.041 15.7374 153.037 15.7591 153.041 15.7626C153.047 15.7693 153.107 15.7627 153.119 15.7627H153.199H153.363H153.688H154.338H154.988C155.263 15.7627 155.546 15.7802 155.816 15.7172C156.287 15.6071 156.687 15.2989 156.891 14.8909C157.003 14.6669 157.039 14.4288 157.039 14.185V13.7831V13.106V12.2285V11.2298V10.1764V9.14692V8.21966V7.46183V6.95225V6.76575H156.878H156.202H155.527H154.853C154.823 6.76575 154.793 6.76562 154.763 6.76562C154.641 6.76562 154.519 6.76744 154.398 6.78564Z" fill="white"/>
</mask>
<g mask="url(#mask2)">
</g>
<path fill-rule="evenodd" clip-rule="evenodd" d="M159.559 6.76935C159.383 6.77963 159.21 6.81623 159.047 6.87808C158.689 7.01462 158.391 7.26945 158.216 7.58918C158.101 7.79853 158.043 8.03123 158.042 8.26579C158.041 8.30375 158.042 8.3417 158.042 8.37969V9.04522V10.2284C158.052 10.2196 158.064 10.2111 158.075 10.2026C158.115 10.1725 158.157 10.1444 158.2 10.1181C158.468 9.95432 158.781 9.8626 159.094 9.80844C159.35 9.76435 159.609 9.7454 159.869 9.74079C160.124 9.7363 160.38 9.74434 160.634 9.76977C160.893 9.79566 161.151 9.83607 161.405 9.88659C161.437 9.89281 161.468 9.89915 161.499 9.90575C161.516 9.90931 161.58 9.91413 161.589 9.92598C161.595 9.93444 161.589 9.9682 161.589 9.97798V10.1V10.56C161.553 10.5431 161.516 10.5266 161.479 10.5106C161.202 10.3894 160.91 10.2994 160.607 10.2551C160.2 10.1956 159.739 10.1972 159.387 10.4227C159.047 10.6403 158.928 11.0265 158.965 11.3938C159.001 11.7512 159.215 12.0576 159.574 12.2005C159.93 12.3416 160.342 12.3226 160.714 12.2545C161.02 12.1987 161.311 12.0964 161.589 11.9681V12.0136V12.5497C161.589 12.5597 161.595 12.5936 161.589 12.6022C161.58 12.6137 161.515 12.6186 161.499 12.622C161.434 12.6357 161.369 12.6486 161.304 12.6607C161.047 12.7085 160.788 12.7464 160.527 12.768C160.272 12.7891 160.014 12.7933 159.758 12.7843C159.496 12.7753 159.234 12.7503 158.979 12.6979C158.642 12.6289 158.306 12.5101 158.042 12.3V12.3988V13.0892V14.1195V15.1225V15.7172C158.042 15.7242 158.037 15.7536 158.042 15.7593C158.052 15.7715 158.143 15.7615 158.165 15.7615H158.497H159.164H159.828C160.062 15.7615 160.301 15.773 160.535 15.7576C160.959 15.7296 161.36 15.5443 161.64 15.248C161.907 14.9642 162.039 14.605 162.039 14.2306V13.8949V13.2531V12.3862V11.3746V10.3029V9.24268V8.28204V7.49352V6.96148V6.7663H161.917H160.886H159.859C159.811 6.7663 159.762 6.76562 159.713 6.76562C159.662 6.76562 159.61 6.76639 159.559 6.76935Z" fill="url(#paint3_linear)"/>
<mask id="mask3" mask-type="alpha" maskUnits="userSpaceOnUse" x="158" y="6" width="5" height="10">
<path fill-rule="evenodd" clip-rule="evenodd" d="M159.559 6.76935C159.383 6.77963 159.21 6.81623 159.047 6.87808C158.689 7.01462 158.391 7.26945 158.216 7.58918C158.101 7.79853 158.043 8.03123 158.042 8.26579C158.041 8.30375 158.042 8.3417 158.042 8.37969V9.04522V10.2284C158.052 10.2196 158.064 10.2111 158.075 10.2026C158.115 10.1725 158.157 10.1444 158.2 10.1181C158.468 9.95432 158.781 9.8626 159.094 9.80844C159.35 9.76435 159.609 9.7454 159.869 9.74079C160.124 9.7363 160.38 9.74434 160.634 9.76977C160.893 9.79566 161.151 9.83607 161.405 9.88659C161.437 9.89281 161.468 9.89915 161.499 9.90575C161.516 9.90931 161.58 9.91413 161.589 9.92598C161.595 9.93444 161.589 9.9682 161.589 9.97798V10.1V10.56C161.553 10.5431 161.516 10.5266 161.479 10.5106C161.202 10.3894 160.91 10.2994 160.607 10.2551C160.2 10.1956 159.739 10.1972 159.387 10.4227C159.047 10.6403 158.928 11.0265 158.965 11.3938C159.001 11.7512 159.215 12.0576 159.574 12.2005C159.93 12.3416 160.342 12.3226 160.714 12.2545C161.02 12.1987 161.311 12.0964 161.589 11.9681V12.0136V12.5497C161.589 12.5597 161.595 12.5936 161.589 12.6022C161.58 12.6137 161.515 12.6186 161.499 12.622C161.434 12.6357 161.369 12.6486 161.304 12.6607C161.047 12.7085 160.788 12.7464 160.527 12.768C160.272 12.7891 160.014 12.7933 159.758 12.7843C159.496 12.7753 159.234 12.7503 158.979 12.6979C158.642 12.6289 158.306 12.5101 158.042 12.3V12.3988V13.0892V14.1195V15.1225V15.7172C158.042 15.7242 158.037 15.7536 158.042 15.7593C158.052 15.7715 158.143 15.7615 158.165 15.7615H158.497H159.164H159.828C160.062 15.7615 160.301 15.773 160.535 15.7576C160.959 15.7296 161.36 15.5443 161.64 15.248C161.907 14.9642 162.039 14.605 162.039 14.2306V13.8949V13.2531V12.3862V11.3746V10.3029V9.24268V8.28204V7.49352V6.96148V6.7663H161.917H160.886H159.859C159.811 6.7663 159.762 6.76562 159.713 6.76562C159.662 6.76562 159.61 6.76639 159.559 6.76935Z" fill="white"/>
</mask>
<g mask="url(#mask3)">
</g>
</g>
<g clip-path="url(#clip4)">
<path fill-rule="evenodd" clip-rule="evenodd" d="M192.039 2.26563C192.039 1.4372 192.711 0.765625 193.539 0.765625H222.539C223.368 0.765625 224.039 1.4372 224.039 2.26563V20.2656C224.039 21.0941 223.368 21.7656 222.539 21.7656H193.539C192.711 21.7656 192.039 21.0941 192.039 20.2656V2.26563Z" fill="url(#paint4_linear)"/>
<path fill-rule="evenodd" clip-rule="evenodd" d="M192.039 2.26563C192.039 1.4372 192.711 0.765625 193.539 0.765625H222.539C223.368 0.765625 224.039 1.4372 224.039 2.26563V20.2656C224.039 21.0941 223.368 21.7656 222.539 21.7656H193.539C192.711 21.7656 192.039 21.0941 192.039 20.2656V2.26563Z" fill="#E5E5E5" fill-opacity="0.01"/>
<path fill-rule="evenodd" clip-rule="evenodd" d="M199.056 12.0988C198.845 12.2901 198.572 12.3736 198.139 12.3736H197.959V10.0878H198.139C198.572 10.0878 198.834 10.1658 199.056 10.3674C199.287 10.5749 199.427 10.8968 199.427 11.2278C199.427 11.5597 199.287 11.8912 199.056 12.0988ZM198.273 9.5022H197.289V12.9586H198.268C198.788 12.9586 199.164 12.8352 199.493 12.5596C199.885 12.2334 200.117 11.7415 200.117 11.2329C200.117 10.2128 199.36 9.5022 198.273 9.5022Z" fill="#212D34"/>
<path fill-rule="evenodd" clip-rule="evenodd" d="M200.425 12.9588H201.095V9.5022H200.425V12.9588Z" fill="#212D34"/>
<path fill-rule="evenodd" clip-rule="evenodd" d="M202.734 10.8285C202.332 10.6788 202.214 10.5802 202.214 10.3933C202.214 10.1757 202.424 10.0102 202.713 10.0102C202.913 10.0102 203.079 10.0933 203.253 10.2901L203.604 9.8282C203.316 9.5746 202.971 9.44507 202.594 9.44507C201.986 9.44507 201.523 9.86973 201.523 10.4354C201.523 10.9116 201.739 11.1555 202.368 11.3833C202.63 11.4765 202.764 11.5384 202.831 11.5801C202.965 11.6681 203.032 11.7927 203.032 11.9379C203.032 12.2179 202.811 12.4254 202.512 12.4254C202.192 12.4254 201.935 12.2645 201.781 11.9643L201.348 12.3838C201.656 12.8398 202.027 13.0418 202.537 13.0418C203.233 13.0418 203.722 12.5759 203.722 11.9069C203.722 11.3576 203.496 11.1091 202.734 10.8285Z" fill="#212D34"/>
<path fill-rule="evenodd" clip-rule="evenodd" d="M203.933 11.2329C203.933 12.2489 204.726 13.0366 205.746 13.0366C206.035 13.0366 206.282 12.9796 206.586 12.8352V12.0416C206.319 12.3113 206.081 12.4202 205.778 12.4202C205.103 12.4202 204.624 11.9278 204.624 11.2278C204.624 10.5642 205.118 10.0408 205.746 10.0408C206.066 10.0408 206.308 10.1555 206.586 10.4296V9.6364C206.292 9.4863 206.051 9.42407 205.762 9.42407C204.747 9.42407 203.933 10.2279 203.933 11.2329Z" fill="#212D34"/>
<path fill-rule="evenodd" clip-rule="evenodd" d="M211.899 11.8239L210.983 9.5022H210.251L211.709 13.0474H212.07L213.554 9.5022H212.827L211.899 11.8239Z" fill="#212D34"/>
<path fill-rule="evenodd" clip-rule="evenodd" d="M213.857 12.9585H215.757V12.3733H214.526V11.4403H215.712V10.8549H214.526V10.0877H215.757V9.50195H213.857V12.9585Z" fill="#212D34"/>
<path fill-rule="evenodd" clip-rule="evenodd" d="M217.066 11.0934H216.87V10.0465H217.076C217.494 10.0465 217.72 10.2224 217.72 10.5588C217.72 10.9063 217.494 11.0934 217.066 11.0934ZM218.41 10.5225C218.41 9.87533 217.967 9.50195 217.194 9.50195H216.201V12.9585H216.87V11.57H216.957L217.885 12.9585H218.709L217.627 11.5024C218.132 11.399 218.41 11.0517 218.41 10.5225Z" fill="#212D34"/>
<g filter="url(#filter0_i)">
<path fill-rule="evenodd" clip-rule="evenodd" d="M210.46 11.2423C210.46 12.2579 209.642 13.0811 208.633 13.0811C207.623 13.0811 206.805 12.2579 206.805 11.2423C206.805 10.2267 207.623 9.40356 208.633 9.40356C209.642 9.40356 210.46 10.2267 210.46 11.2423Z" fill="url(#paint5_linear)"/>
</g>
</g>
<g clip-path="url(#clip5)">
<path fill-rule="evenodd" clip-rule="evenodd" d="M240.039 2.26563C240.039 1.4372 240.711 0.765625 241.539 0.765625H270.539C271.368 0.765625 272.039 1.4372 272.039 2.26563V20.2656C272.039 21.0941 271.368 21.7656 270.539 21.7656H241.539C240.711 21.7656 240.039 21.0941 240.039 20.2656V2.26563Z" fill="#F4F6F7"/>
<path fill-rule="evenodd" clip-rule="evenodd" d="M240.039 2.26563C240.039 1.4372 240.711 0.765625 241.539 0.765625H270.539C271.368 0.765625 272.039 1.4372 272.039 2.26563V20.2656C272.039 21.0941 271.368 21.7656 270.539 21.7656H241.539C240.711 21.7656 240.039 21.0941 240.039 20.2656V2.26563Z" fill="#E5E5E5" fill-opacity="0.01"/>
<path fill-rule="evenodd" clip-rule="evenodd" d="M257.353 16.2458C260.056 16.2589 262.523 14.0212 262.523 11.2991C262.523 8.32226 260.056 6.26464 257.353 6.26563H255.026C252.291 6.26464 250.039 8.32287 250.039 11.2991C250.039 14.0218 252.291 16.2589 255.026 16.2458H257.353Z" fill="url(#paint6_linear)"/>
<path fill-rule="evenodd" clip-rule="evenodd" d="M255.036 6.6814C252.536 6.68219 250.511 8.72674 250.51 11.2501C250.511 13.7731 252.536 15.8174 255.036 15.8182C257.536 15.8174 259.562 13.7731 259.562 11.2501C259.562 8.72674 257.536 6.68219 255.036 6.6814ZM252.167 11.2501C252.17 10.0171 252.933 8.96557 254.009 8.54773V13.9519C252.933 13.5343 252.17 12.4834 252.167 11.2501ZM256.063 13.9531V8.54755C257.139 8.96439 257.904 10.0165 257.905 11.2501C257.904 12.4842 257.139 13.5355 256.063 13.9531Z" fill="#F4F6F7"/>
</g>
<defs>
<filter id="filter0_i" x="206.805" y="9.40356" width="3.65487" height="3.67757" filterUnits="userSpaceOnUse" color-interpolation-filters="sRGB">
<feFlood flood-opacity="0" result="BackgroundImageFix"/>
<feBlend mode="normal" in="SourceGraphic" in2="BackgroundImageFix" result="shape"/>
<feColorMatrix in="SourceAlpha" type="matrix" values="0 0 0 0 0 0 0 0 0 0 0 0 0 0 0 0 0 0 127 0" result="hardAlpha"/>
<feOffset dx="1" dy="1"/>
<feComposite in2="hardAlpha" operator="arithmetic" k2="-1" k3="1"/>
<feColorMatrix type="matrix" values="0 0 0 0 0.314068 0 0 0 0 0.00146228 0 0 0 0 0.00146228 0 0 0 0.5 0"/>
<feBlend mode="normal" in2="shape" result="effect1_innerShadow"/>
</filter>
<radialGradient id="paint0_radial" cx="0" cy="0" r="1" gradientUnits="userSpaceOnUse" gradientTransform="translate(58.7854 4.74609) rotate(90) scale(21 32)">
<stop stop-color="#71C8F2"/>
<stop offset="1" stop-color="#0071BD"/>
</radialGradient>
<linearGradient id="paint1_linear" x1="167.039" y1="6.37639" x2="163.175" y2="6.37639" gradientUnits="userSpaceOnUse">
<stop stop-color="#43C311"/>
<stop offset="1" stop-color="#288C00"/>
</linearGradient>
<linearGradient id="paint2_linear" x1="153.05" y1="15.7881" x2="157.09" y2="15.7881" gradientUnits="userSpaceOnUse">
<stop stop-color="#21469E"/>
<stop offset="1" stop-color="#1E81EB"/>
</linearGradient>
<linearGradient id="paint3_linear" x1="162.039" y1="6.76562" x2="158.039" y2="6.76562" gradientUnits="userSpaceOnUse">
<stop stop-color="#F42D3E"/>
<stop offset="1" stop-color="#9C0017"/>
</linearGradient>
<linearGradient id="paint4_linear" x1="176.039" y1="11.2656" x2="195.305" y2="40.6226" gradientUnits="userSpaceOnUse">
<stop stop-color="#EDF1F3"/>
<stop offset="1" stop-color="#D3DADF"/>
</linearGradient>
<linearGradient id="paint5_linear" x1="210.871" y1="11.5938" x2="208.703" y2="9.02908" gradientUnits="userSpaceOnUse">
<stop stop-color="#FFA700"/>
<stop offset="1" stop-color="#E75A10"/>
</linearGradient>
<linearGradient id="paint6_linear" x1="265.114" y1="14.3359" x2="261.912" y2="3.87317" gradientUnits="userSpaceOnUse">
<stop stop-color="#009BE0"/>
<stop offset="1" stop-color="#006BA8"/>
</linearGradient>
<clipPath id="clip0">
<rect width="32" height="21" fill="white" transform="translate(0.0393066 0.765625)"/>
</clipPath>
<clipPath id="clip1">
<rect width="32" height="21" fill="white" transform="translate(96.0393 0.765625)"/>
</clipPath>
<clipPath id="clip2">
<rect width="32" height="21" fill="white" transform="translate(48.0393 0.765625)"/>
</clipPath>
<clipPath id="clip3">
<rect width="32" height="21" fill="white" transform="translate(144.039 0.765625)"/>
</clipPath>
<clipPath id="clip4">
<rect width="32" height="21" fill="white" transform="translate(192.039 0.765625)"/>
</clipPath>
<clipPath id="clip5">
<rect width="32" height="21" fill="white" transform="translate(240.039 0.765625)"/>
</clipPath>
</defs>
</svg>
